<?xml version="1.0" encoding="utf-8"?>
<?xml-stylesheet type="text/xsl" href="rss1.xsl"?>
<rss version="2.0" xmlns:atom="http://www.w3.org/2005/Atom" xmlns:content="http://purl.org/rss/1.0/modules/content/" xmlns:dc="http://purl.org/dc/elements/1.1/" xmlns:media="http://search.yahoo.com/mrss/">
<channel>
 <title>Getty</title>
 <link>http://www.gettyimg.com/</link>
 <atom:link href="http://www.gettyimg.com/" rel="self" type="application/rss+xml" />

 
                <item>
                <title><![CDATA[【Albums (lossless)】DSF - Michael Jackson ‎– Bad [DSD 128] (1st Japan press)]]></title>
                <link><![CDATA[https://sharemania.us/threads/michael-jackson-%E2%80%8E%E2%80%93-bad-dsd-128-1st-japan-press.242499/]]></link>
                <description><![CDATA[<article>
<blockquote class="messageText SelectQuoteContainer ugc baseHtml">
<img src="https://ia902603.us.archive.org/BookReader/BookReaderImages.php?zip=/4/items/cd_bad_michael-jackson/cd_bad_michael-jackson_jp2.zip&amp;file=cd_bad_michael-jackson_jp2/cd_bad_michael-jackson_0000.jp2&amp;id=cd_bad_michael-jackson" class="bbCodeImage LbImage" alt="[​IMG]" data-url="https://ia902603.us.archive.org/BookReader/BookReaderImages.php?zip=/4/items/cd_bad_michael-jackson/cd_bad_michael-jackson_jp2.zip&amp;file=cd_bad_michael-jackson_jp2/cd_bad_michael-jackson_0000.jp2&amp;id=cd_bad_michael-jackson" style=""> <br>
Michael Jackson ‎– Bad (1st Japan press)<br>
<br>
<b>Genre: </b>Rhythm &amp; Blues, Synth-pop, Soul<br>
Media: LP<br>
<b>Year of release:</b> 31 Aug 1987<br>
<b>Label:</b> Epic ‎– 28 3P-800<br>
<b>Country of origin:</b> Japan<br>
<b>Audio codec: </b>DSD 128<br>
<b>Rip type: </b>tracks<br>
<b>Recording format:</b> 1/5.6<br>
<b>Distribution format: </b>1/5.6<br>
<b>Duration:</b> 00:44:01<br>
<br>
<b>Tracklist:</b><br>
A1 Bad 4:06<br>
A2 The Way You Make Me Feel 4:59<br>
A3 Speed Demon 4:01<br>
A4 Liberian Girl 3:53<br>
A5 Just Good Friends 4:05<br>
B1 Another Part Of Me 3:53<br>
B2 Man In The Mirror 5:18<br>
B3 I Just Can't Stop Loving You 4:24<br>
B4 Dirty Diana 4:52<br>
B5 Smooth Criminal 4:16<br>
<br>
<b>Vinyl condition class code:</b> NM<br>
<b>Playback device:</b> Pro-Ject DEBUT CARBON RecordMaster HiRes<br>
<b>Pickup head:</b> Ortofon 2M Red<br>
<b>Pre-amplifier:</b> built-in phono stage<br>
<b>ADC: </b>Asahi Kasei Microdevices AK5552VN<br>
<b>Digitizer program: </b>VisualStudio 9.0.5<br>
<b>Processing: </b>no<br>
<br>
<span style="color: #ff0000"><b>DOWNLOAD:</b></span><br>
<b>Password:</b> SharemaniaOLOBER<br>
<div class="bbCodeBlock bbCodeVfcHH HiddenContent">
<div class="attribution type">Hidden Content:</div>
<blockquote>You must reply before you can see the hidden data contained here.</blockquote>
</div>
<div class="messageTextEndMarker">&nbsp;</div>
</blockquote>
</article>]]></description>
                <author><![CDATA[olobersykes99]]></author>
                </item>

                
                <item>
                <title><![CDATA[【Albums (lossless)】FLAC - Linkin Park - Reanimation [Vinyl Rip] [FLAC 24bits/192kHz]]]></title>
                <link><![CDATA[https://sharemania.us/threads/linkin-park-reanimation-vinyl-rip-flac-24bits-192khz.242502/]]></link>
                <description><![CDATA[<article>
<blockquote class="messageText SelectQuoteContainer ugc baseHtml">
thanks
<div class="messageTextEndMarker">&nbsp;</div>
</blockquote>
</article>]]></description>
                <author><![CDATA[olobersykes99]]></author>
                </item>

                
                <item>
                <title><![CDATA[【Cinema Center】SERIES - The Secret Score - Season 1 - 1080p/2160p Disney+ WEB-DL DDP5.1 Atmos H.264-LAZY]]></title>
                <link><![CDATA[https://sharemania.us/threads/the-secret-score-season-1-1080p-2160p-disney-web-dl-ddp5-1-atmos-h-264-lazy.242503/]]></link>
                <description><![CDATA[<article>
<blockquote class="messageText SelectQuoteContainer ugc baseHtml">
<img src="https://ia800805.us.archive.org/BookReader/BookReaderImages.php?zip=/14/items/cd_reanimation_linkin-park-aaron-lewis-aceyalone-alchemis/cd_reanimation_linkin-park-aaron-lewis-aceyalone-alchemis_jp2.zip&amp;file=cd_reanimation_linkin-park-aaron-lewis-aceyalone-alchemis_jp2/cd_reanimation_linkin-park-aaron-lewis-aceyalone-alchemis_0000.jp2&amp;id=cd_reanimation_linkin-park-aaron-lewis-aceyalone-alchemis" class="bbCodeImage LbImage" alt="[​IMG]" data-url="https://ia800805.us.archive.org/BookReader/BookReaderImages.php?zip=/14/items/cd_reanimation_linkin-park-aaron-lewis-aceyalone-alchemis/cd_reanimation_linkin-park-aaron-lewis-aceyalone-alchemis_jp2.zip&amp;file=cd_reanimation_linkin-park-aaron-lewis-aceyalone-alchemis_jp2/cd_reanimation_linkin-park-aaron-lewis-aceyalone-alchemis_0000.jp2&amp;id=cd_reanimation_linkin-park-aaron-lewis-aceyalone-alchemis" style=""> <br>
<br>
<b>Ripped using Foobar2000</b><br>
<div class="bbCodeBlock bbCodeCode">
<div class="type">Code:</div>
<pre>foobar2000 1.3.16 / Dynamic Range Meter 1.1.1
log date: 2018-03-05 17:20:16

--------------------------------------------------------------------------------
Analyzed: Linkin Park / Reanimation
--------------------------------------------------------------------------------

DR         Peak         RMS     Duration Track
--------------------------------------------------------------------------------
DR9       -7.68 dB   -20.99 dB      1:10 01-OPENING
DR10       0.00 dB   -13.62 dB      3:44 02-PTS.OF.ATHRTY
DR12      -0.68 dB   -14.41 dB      4:00 03-ENTH E ND
DR14     -13.64 dB   -31.07 dB      0:24 04-[CHALI]
DR11      -0.12 dB   -13.01 dB      3:32 05-FRGT/10
DR11       0.00 dB   -13.50 dB      4:39 06-P5HNG ME A*WY
DR12       0.00 dB   -16.10 dB      4:20 07-PLC.4 MIE HAED
DR13      -0.34 dB   -15.18 dB      1:50 08-X-ECUTIONER STYLE
DR14       0.00 dB   -14.54 dB      3:31 09-H! VLTG3
DR16     -10.47 dB   -31.13 dB      0:22 10-[RIFF RAFF]
DR11       0.00 dB   -14.06 dB      4:13 11-WTH&gt;YOU
DR9      -14.71 dB   -27.92 dB      0:25 12-NTR\MSSION
DR11      -0.37 dB   -13.75 dB      3:30 13-PPR:KUT
DR10      -0.45 dB   -13.27 dB      3:14 14-RNW@Y
DR12      -0.20 dB   -15.17 dB      4:12 15-MY&lt;DSMBR
DR14     -14.24 dB   -29.92 dB      0:14 16-[STEF]
DR11      -0.16 dB   -13.25 dB      3:48 17-BY_MYSLF
DR11      -0.18 dB   -13.95 dB      2:32 18-KYUR4 TH ICH
DR11       0.00 dB   -14.71 dB      5:46 19-1STP KLOSR
DR11      -0.84 dB   -15.73 dB      5:44 20-KRWLNG
--------------------------------------------------------------------------------

Number of tracks:  20
Official DR value: DR12

Samplerate:        192000 Hz
Channels:          2
Bits per sample:   24
Bitrate:           5406 kbps
Codec:             FLAC
================================================================================
</pre>
</div><b>Tracklist:</b><br>
1 OPENING<br>
2 PTS.OF.ATHRTY//Jay Gordon<br>
3 ENTH E ND//Kutmasta Kurt feat. Motion Man<br>
4 [CHALI]<br>
5 FRGT/10//Alchemist feat. Chali 2na<br>
6 P5HNG ME A*WY//Mike Shinoda feat. Stephen Richards<br>
7 PLC.4 MIE HAED// Amp Live feat. Zion<br>
8 X-ECUTIONER STYLE//feat. Black Thought<br>
9 H! VLTG3//Evidence feat. Pharoahe Monch &amp; DJ Babu<br>
10 [RIFF RAFF]<br>
11 WTH&gt;YOU//Chairman Hahn feat. Aceyalone<br>
12 NTR\MSSION<br>
13 PPR:KUT//Cheapshot &amp; Jubacca feat. Rasco &amp; Planet Asia<br>
14 RNW@Y//Backyard Bangers feat. Phoenix Orion<br>
15 MY&lt;DSMBR//Mickey P. feat. Kelli Ali<br>
16 [STEF]<br>
17 BY_MYSLF//Josh Abraham &amp; Mike Shinoda<br>
18 KYUR4 TH ICH//Chairman Hahn<br>
19 1STP KLOSR//The Humble Brothers feat. Jonathan Davis<br>
20 KRWLNG//Mike Shinoda feat. Aaron<br>
<br>
<b><span style="color: #ff0000">DOWNLOAD:</span><br>
Password: </b>SharemaniaOLOBER <br>
<div class="bbCodeBlock bbCodeVfcHH HiddenContent">
<div class="attribution type">Hidden Content:</div>
<blockquote>You must reply before you can see the hidden data contained here.</blockquote>
</div>
<div class="messageTextEndMarker">&nbsp;</div>
</blockquote>
</article>]]></description>
                <author><![CDATA[LazyRips]]></author>
                </item>

                
                <item>
                <title><![CDATA[【Cinema Center】SERIES - Becoming (2020) - Season 1 - 1080p Disney+ WEB-DL DDP5.1 H.264-LAZY]]></title>
                <link><![CDATA[https://sharemania.us/threads/becoming-2020-season-1-1080p-disney-web-dl-ddp5-1-h-264-lazy.242500/]]></link>
                <description><![CDATA[<article>
<blockquote class="messageText SelectQuoteContainer ugc baseHtml">
The Secret Score:<img src="https://artworks.thetvdb.com/banners/v4/series/449102/banners/6620663988340.jpg" class="bbCodeImage LbImage" alt="[​IMG]" data-url="https://artworks.thetvdb.com/banners/v4/series/449102/banners/6620663988340.jpg" style=""><br>
<br>
<div class="bbCodeBlock bbCodeQuote">
<aside>
<blockquote class="quoteContainer"><div class="quote"><i><b>Synopsis:</b></i><br>
Maya and her friends find a musical score that grants them magical powers. Together they try to keep it a secret, not knowing that someone with dark intentions is looking for it. As they go on adventures together, they gain a deeper understanding of each other and themselves. Ultimately, they will have to ask themselves if the world is ready for magic.</div><div class="quoteExpand">Click to expand...</div></blockquote>
</aside>
</div>
<div class="ToggleTriggerAnchor bbCodeSpoilerContainer">
<button type="button" class="button bbCodeSpoilerButton ToggleTrigger Tooltip JsOnly" data-target="> .SpoilerTarget"><span>Spoiler: <span class="SpoilerTitle">MediaInfo 2160p</span></span></button>
<div class="SpoilerTarget bbCodeSpoilerText">General<br>
Unique ID : 283557509252445258453410070275587090895 (0xD5533096E5C87B3E3916B5484384A9CF)<br>
Complete name : The.Secret.Score.S01E01.In.the.Chaos.Clef.2160p.DSNP.WEB-DL.DDP5.1.Atmos.DV.HDR.H.265-LAZY.mkv<br>
Format : Matroska<br>
Format version : Version 4<br>
File size : 3.34 GiB<br>
Duration : 30 min 28 s<br>
Overall bit rate : 15.7 Mb/s<br>
Encoded date : UTC 2024-04-18 12:27:40<br>
Writing application : mkvmerge v83.0 ('Circle Of Friends') 64-bit<br>
Writing library : libebml v1.4.5 + libmatroska v1.7.1<br>
<br>
Video<br>
ID : 1<br>
Format : HEVC<br>
Format/Info : High Efficiency Video Coding<br>
Format profile : Main 10@L5@High<br>
HDR format : Dolby Vision, Version 1.0, dvhe.08.06, BL+RPU, HDR10 compatible / SMPTE ST 2086, HDR10 compatible<br>
Codec ID : V_MPEGH/ISO/HEVC<br>
Duration : 30 min 28 s<br>
Bit rate : 14.9 Mb/s<br>
Width : 3 840 pixels<br>
Height : 2 160 pixels<br>
Display aspect ratio : 16:9<br>
Frame rate mode : Constant<br>
Frame rate : 23.976 (24000/1001) FPS<br>
Color space : YUV<br>
Chroma subsampling : 4:2:0<br>
Bit depth : 10 bits<br>
Bits/(Pixel*Frame) : 0.075<br>
Stream size : 3.18 GiB (95%)<br>
Default : Yes<br>
Forced : No<br>
Color range : Limited<br>
Color primaries : BT.2020<br>
Transfer characteristics : PQ<br>
Matrix coefficients : BT.2020 non-constant<br>
Mastering display color primaries : BT.2020<br>
Mastering display luminance : min: 0.0010 cd/m2, max: 1000 cd/m2<br>
<br>
Audio<br>
ID : 2<br>
Format : E-AC-3 JOC<br>
Format/Info : Enhanced AC-3 with Joint Object Coding<br>
Commercial name : Dolby Digital Plus with Dolby Atmos<br>
Codec ID : A_EAC3<br>
Duration : 30 min 28 s<br>
Bit rate mode : Constant<br>
Bit rate : 768 kb/s<br>
Channel(s) : 6 channels<br>
Channel layout : L R C LFE Ls Rs<br>
Sampling rate : 48.0 kHz<br>
Frame rate : 31.250 FPS (1536 SPF)<br>
Compression mode : Lossy<br>
Stream size : 167 MiB (5%)<br>
Title : Latin American<br>
Language : Spanish<br>
Service kind : Complete Main<br>
Default : Yes<br>
Forced : No<br>
Complexity index : 16<br>
Number of dynamic objects : 15<br>
Bed channel count : 1 channel<br>
Bed channel configuration : LFE<br>
<br>
Text #1<br>
ID : 3<br>
Format : UTF-8<br>
Codec ID : S_TEXT/UTF8<br>
Codec ID/Info : UTF-8 Plain Text<br>
Duration : 30 min 20 s<br>
Bit rate : 63 b/s<br>
Count of elements : 347<br>
Stream size : 14.1 KiB (0%)<br>
Title : SDH<br>
Language : English<br>
Default : No<br>
Forced : No<br>
<br>
Text #2<br>
ID : 4<br>
Format : UTF-8<br>
Codec ID : S_TEXT/UTF8<br>
Codec ID/Info : UTF-8 Plain Text<br>
Duration : 30 min 21 s<br>
Bit rate : 63 b/s<br>
Count of elements : 428<br>
Stream size : 14.1 KiB (0%)<br>
Title : Latin American (SDH)<br>
Language : Spanish<br>
Default : No<br>
Forced : No<br>
<br>
Text #3<br>
ID : 5<br>
Format : UTF-8<br>
Codec ID : S_TEXT/UTF8<br>
Codec ID/Info : UTF-8 Plain Text<br>
Duration : 29 min 39 s<br>
Bit rate : 52 b/s<br>
Count of elements : 303<br>
Stream size : 11.5 KiB (0%)<br>
Title : Brazilian<br>
Language : Portuguese<br>
Default : No<br>
Forced : No<br>
<br>
Menu<br>
00:00:00.000 : en:Scene 1<br>
00:06:23.217 : en:Scene 2<br>
00:20:04.121 : en:Scene 3<br>
00:27:50.796 : en:Credits</div>
</div><br>
<div class="ToggleTriggerAnchor bbCodeSpoilerContainer">
<button type="button" class="button bbCodeSpoilerButton ToggleTrigger Tooltip JsOnly" data-target="> .SpoilerTarget"><span>Spoiler: <span class="SpoilerTitle">MediaInfo 1080p</span></span></button>
<div class="SpoilerTarget bbCodeSpoilerText">General<br>
Unique ID : 7555819951068554664792521807694827855 (0x5AF32AF75E9464EDD1D3879E606914F)<br>
Complete name : The.Secret.Score.S01E01.In.the.Chaos.Clef.1080p.DSNP.WEB-DL.DDP5.1.Atmos.H.264-LAZY.mkv<br>
Format : Matroska<br>
Format version : Version 4<br>
File size : 1.60 GiB<br>
Duration : 30 min 28 s<br>
Overall bit rate mode : Variable<br>
Overall bit rate : 7 517 kb/s<br>
Encoded date : UTC 2024-04-18 21:56:04<br>
Writing application : mkvmerge v83.0 ('Circle Of Friends') 64-bit<br>
Writing library : libebml v1.4.5 + libmatroska v1.7.1<br>
<br>
Video<br>
ID : 1<br>
Format : AVC<br>
Format/Info : Advanced Video Codec<br>
Format profile : High@L4<br>
Format settings : CABAC / 4 Ref Frames<br>
Format settings, CABAC : Yes<br>
Format settings, Reference frames : 4 frames<br>
Codec ID : V_MPEG4/ISO/AVC<br>
Duration : 30 min 28 s<br>
Bit rate mode : Variable<br>
Bit rate : 6 747 kb/s<br>
Maximum bit rate : 12.7 Mb/s<br>
Width : 1 920 pixels<br>
Height : 1 080 pixels<br>
Display aspect ratio : 16:9<br>
Frame rate mode : Constant<br>
Frame rate : 23.976 (24000/1001) FPS<br>
Color space : YUV<br>
Chroma subsampling : 4:2:0<br>
Bit depth : 8 bits<br>
Scan type : Progressive<br>
Bits/(Pixel*Frame) : 0.136<br>
Stream size : 1.44 GiB (90%)<br>
Default : Yes<br>
Forced : No<br>
Color range : Limited<br>
Color primaries : BT.709<br>
Transfer characteristics : BT.709<br>
Matrix coefficients : BT.709<br>
<br>
Audio<br>
ID : 2<br>
Format : E-AC-3 JOC<br>
Format/Info : Enhanced AC-3 with Joint Object Coding<br>
Commercial name : Dolby Digital Plus with Dolby Atmos<br>
Codec ID : A_EAC3<br>
Duration : 30 min 28 s<br>
Bit rate mode : Constant<br>
Bit rate : 768 kb/s<br>
Channel(s) : 6 channels<br>
Channel layout : L R C LFE Ls Rs<br>
Sampling rate : 48.0 kHz<br>
Frame rate : 31.250 FPS (1536 SPF)<br>
Compression mode : Lossy<br>
Stream size : 167 MiB (10%)<br>
Title : Latin American<br>
Language : Spanish<br>
Service kind : Complete Main<br>
Default : Yes<br>
Forced : No<br>
Complexity index : 16<br>
Number of dynamic objects : 15<br>
Bed channel count : 1 channel<br>
Bed channel configuration : LFE<br>
<br>
Text #1<br>
ID : 3<br>
Format : UTF-8<br>
Codec ID : S_TEXT/UTF8<br>
Codec ID/Info : UTF-8 Plain Text<br>
Duration : 30 min 20 s<br>
Bit rate : 63 b/s<br>
Count of elements : 347<br>
Stream size : 14.1 KiB (0%)<br>
Title : SDH<br>
Language : English<br>
Default : No<br>
Forced : No<br>
<br>
Text #2<br>
ID : 4<br>
Format : UTF-8<br>
Codec ID : S_TEXT/UTF8<br>
Codec ID/Info : UTF-8 Plain Text<br>
Duration : 30 min 21 s<br>
Bit rate : 63 b/s<br>
Count of elements : 428<br>
Stream size : 14.1 KiB (0%)<br>
Title : Latin American (SDH)<br>
Language : Spanish<br>
Default : No<br>
Forced : No<br>
<br>
Text #3<br>
ID : 5<br>
Format : UTF-8<br>
Codec ID : S_TEXT/UTF8<br>
Codec ID/Info : UTF-8 Plain Text<br>
Duration : 29 min 39 s<br>
Bit rate : 52 b/s<br>
Count of elements : 303<br>
Stream size : 11.5 KiB (0%)<br>
Title : Brazilian<br>
Language : Portuguese<br>
Default : No<br>
Forced : No<br>
<br>
Menu<br>
00:00:00.000 : en:Scene 1<br>
00:06:23.217 : en:Scene 2<br>
00:20:04.121 : en:Scene 3<br>
00:27:50.796 : en:Credits</div>
</div><br>
Screenshots:<br>
<img src="https://ptpimg.me/ek1733.jpg" class="bbCodeImage LbImage" alt="[​IMG]" data-url="https://ptpimg.me/ek1733.jpg" style=""><br>
<img src="https://ptpimg.me/y273n9.jpg" class="bbCodeImage LbImage" alt="[​IMG]" data-url="https://ptpimg.me/y273n9.jpg" style=""><br>
<div class="bbCodeBlock bbCodeVfcHH HiddenContent">
<div class="attribution type">Hidden Content:</div>
<blockquote>You must either reply or click 'Like' to see the hidden information contained here.</blockquote>
</div>
<div class="messageTextEndMarker">&nbsp;</div>
</blockquote>
</article>]]></description>
                <author><![CDATA[LazyRips]]></author>
                </item>

                
                <item>
                <title><![CDATA[【Requests】[REQ VID] - Tori Kelly - thing u do [TIDAL 1080p]]]></title>
                <link><![CDATA[https://sharemania.us/threads/tori-kelly-thing-u-do-tidal-1080p.242501/]]></link>
                <description><![CDATA[<article>
<blockquote class="messageText SelectQuoteContainer ugc baseHtml">
Becoming:<img src="https://artworks.thetvdb.com/banners/v4/series/387110/banners/662037e652a5f.jpg" class="bbCodeImage LbImage" alt="[​IMG]" data-url="https://artworks.thetvdb.com/banners/v4/series/387110/banners/662037e652a5f.jpg" style=""> <br>
<br>
<div class="bbCodeBlock bbCodeQuote">
<aside>
<blockquote class="quoteContainer"><div class="quote"><i><b>Synopsis:</b></i><br>
Each episode will visit a celebrities hometown, visit important locations from their past, with interviews from family members, coaches, teachers, friends and more, who share anecdotes and details on how the celebrity became a star.</div><div class="quoteExpand">Click to expand...</div></blockquote>
</aside>
</div>
<div class="ToggleTriggerAnchor bbCodeSpoilerContainer">
<button type="button" class="button bbCodeSpoilerButton ToggleTrigger Tooltip JsOnly" data-target="> .SpoilerTarget"><span>Spoiler: <span class="SpoilerTitle">MediaInfo</span></span></button>
<div class="SpoilerTarget bbCodeSpoilerText">General<br>
Unique ID : 64804149082891040909323561619226977415 (0x30C0D33B525B89AFC0ADE3B9230D6487)<br>
Complete name : Becoming.2020.S01E01.Anthony.Davis.1080p.DSNP.WEB-DL.DDP5.1.H.264-LAZY.mkv<br>
Format : Matroska<br>
Format version : Version 4<br>
File size : 1.42 GiB<br>
Duration : 23 min 21 s<br>
Overall bit rate mode : Variable<br>
Overall bit rate : 8 720 kb/s<br>
Encoded date : UTC 2024-04-17 16:46:49<br>
Writing application : mkvmerge v83.0 ('Circle Of Friends') 64-bit<br>
Writing library : libebml v1.4.5 + libmatroska v1.7.1<br>
<br>
Video<br>
ID : 1<br>
Format : AVC<br>
Format/Info : Advanced Video Codec<br>
Format profile : High@L4<br>
Format settings : CABAC / 4 Ref Frames<br>
Format settings, CABAC : Yes<br>
Format settings, Reference frames : 4 frames<br>
Codec ID : V_MPEG4/ISO/AVC<br>
Duration : 23 min 21 s<br>
Bit rate mode : Variable<br>
Bit rate : 8 458 kb/s<br>
Maximum bit rate : 12.7 Mb/s<br>
Width : 1 920 pixels<br>
Height : 1 080 pixels<br>
Display aspect ratio : 16:9<br>
Frame rate mode : Constant<br>
Frame rate : 23.976 (24000/1001) FPS<br>
Color space : YUV<br>
Chroma subsampling : 4:2:0<br>
Bit depth : 8 bits<br>
Scan type : Progressive<br>
Bits/(Pixel*Frame) : 0.170<br>
Stream size : 1.38 GiB (97%)<br>
Default : Yes<br>
Forced : No<br>
Color range : Limited<br>
Color primaries : BT.709<br>
Transfer characteristics : BT.709<br>
Matrix coefficients : BT.709<br>
<br>
Audio<br>
ID : 2<br>
Format : E-AC-3<br>
Format/Info : Enhanced AC-3<br>
Commercial name : Dolby Digital Plus<br>
Codec ID : A_EAC3<br>
Duration : 23 min 21 s<br>
Bit rate mode : Constant<br>
Bit rate : 256 kb/s<br>
Channel(s) : 6 channels<br>
Channel layout : L R C LFE Ls Rs<br>
Sampling rate : 48.0 kHz<br>
Frame rate : 31.250 FPS (1536 SPF)<br>
Compression mode : Lossy<br>
Stream size : 42.8 MiB (3%)<br>
Language : English<br>
Service kind : Complete Main<br>
Default : Yes<br>
Forced : No<br>
<br>
Text #1<br>
ID : 3<br>
Format : UTF-8<br>
Codec ID : S_TEXT/UTF8<br>
Codec ID/Info : UTF-8 Plain Text<br>
Duration : 23 min 17 s<br>
Bit rate : 114 b/s<br>
Count of elements : 407<br>
Stream size : 19.5 KiB (0%)<br>
Title : SDH<br>
Language : English<br>
Default : No<br>
Forced : No<br>
<br>
Text #2<br>
ID : 4<br>
Format : UTF-8<br>
Codec ID : S_TEXT/UTF8<br>
Codec ID/Info : UTF-8 Plain Text<br>
Duration : 23 min 8 s<br>
Bit rate : 96 b/s<br>
Count of elements : 387<br>
Stream size : 16.3 KiB (0%)<br>
Language : Czech<br>
Default : No<br>
Forced : No<br>
<br>
Text #3<br>
ID : 5<br>
Format : UTF-8<br>
Codec ID : S_TEXT/UTF8<br>
Codec ID/Info : UTF-8 Plain Text<br>
Duration : 23 min 8 s<br>
Bit rate : 94 b/s<br>
Count of elements : 373<br>
Stream size : 16.1 KiB (0%)<br>
Language : Danish<br>
Default : No<br>
Forced : No<br>
<br>
Text #4<br>
ID : 6<br>
Format : UTF-8<br>
Codec ID : S_TEXT/UTF8<br>
Codec ID/Info : UTF-8 Plain Text<br>
Duration : 23 min 8 s<br>
Bit rate : 103 b/s<br>
Count of elements : 377<br>
Stream size : 17.5 KiB (0%)<br>
Language : German<br>
Default : No<br>
Forced : No<br>
<br>
Text #5<br>
ID : 7<br>
Format : UTF-8<br>
Codec ID : S_TEXT/UTF8<br>
Codec ID/Info : UTF-8 Plain Text<br>
Duration : 23 min 8 s<br>
Bit rate : 166 b/s<br>
Count of elements : 385<br>
Stream size : 28.2 KiB (0%)<br>
Language : Greek<br>
Default : No<br>
Forced : No<br>
<br>
Text #6<br>
ID : 8<br>
Format : UTF-8<br>
Codec ID : S_TEXT/UTF8<br>
Codec ID/Info : UTF-8 Plain Text<br>
Duration : 23 min 8 s<br>
Bit rate : 105 b/s<br>
Count of elements : 383<br>
Stream size : 17.8 KiB (0%)<br>
Title : Latin American<br>
Language : Spanish<br>
Default : No<br>
Forced : No<br>
<br>
Text #7<br>
ID : 9<br>
Format : UTF-8<br>
Codec ID : S_TEXT/UTF8<br>
Codec ID/Info : UTF-8 Plain Text<br>
Duration : 23 min 8 s<br>
Bit rate : 86 b/s<br>
Count of elements : 375<br>
Stream size : 14.6 KiB (0%)<br>
Title : European<br>
Language : Spanish<br>
Default : No<br>
Forced : No<br>
<br>
Text #8<br>
ID : 10<br>
Format : UTF-8<br>
Codec ID : S_TEXT/UTF8<br>
Codec ID/Info : UTF-8 Plain Text<br>
Duration : 23 min 8 s<br>
Bit rate : 90 b/s<br>
Count of elements : 365<br>
Stream size : 15.4 KiB (0%)<br>
Language : Finnish<br>
Default : No<br>
Forced : No<br>
<br>
Text #9<br>
ID : 11<br>
Format : UTF-8<br>
Codec ID : S_TEXT/UTF8<br>
Codec ID/Info : UTF-8 Plain Text<br>
Duration : 23 min 8 s<br>
Bit rate : 106 b/s<br>
Count of elements : 376<br>
Stream size : 18.1 KiB (0%)<br>
Language : French<br>
Default : No<br>
Forced : No<br>
<br>
Text #10<br>
ID : 12<br>
Format : UTF-8<br>
Codec ID : S_TEXT/UTF8<br>
Codec ID/Info : UTF-8 Plain Text<br>
Duration : 23 min 8 s<br>
Bit rate : 100 b/s<br>
Count of elements : 383<br>
Stream size : 17.0 KiB (0%)<br>
Language : Hungarian<br>
Default : No<br>
Forced : No<br>
<br>
Text #11<br>
ID : 13<br>
Format : UTF-8<br>
Codec ID : S_TEXT/UTF8<br>
Codec ID/Info : UTF-8 Plain Text<br>
Duration : 23 min 8 s<br>
Bit rate : 99 b/s<br>
Count of elements : 375<br>
Stream size : 16.9 KiB (0%)<br>
Language : Italian<br>
Default : No<br>
Forced : No<br>
<br>
Text #12<br>
ID : 14<br>
Format : UTF-8<br>
Codec ID : S_TEXT/UTF8<br>
Codec ID/Info : UTF-8 Plain Text<br>
Duration : 23 min 8 s<br>
Bit rate : 84 b/s<br>
Count of elements : 342<br>
Stream size : 14.4 KiB (0%)<br>
Language : Japanese<br>
Default : No<br>
Forced : No<br>
<br>
Text #13<br>
ID : 15<br>
Format : UTF-8<br>
Codec ID : S_TEXT/UTF8<br>
Codec ID/Info : UTF-8 Plain Text<br>
Duration : 23 min 8 s<br>
Bit rate : 108 b/s<br>
Count of elements : 388<br>
Stream size : 18.3 KiB (0%)<br>
Language : Korean<br>
Default : No<br>
Forced : No<br>
<br>
Text #14<br>
ID : 16<br>
Format : UTF-8<br>
Codec ID : S_TEXT/UTF8<br>
Codec ID/Info : UTF-8 Plain Text<br>
Duration : 23 min 8 s<br>
Bit rate : 89 b/s<br>
Count of elements : 313<br>
Stream size : 15.2 KiB (0%)<br>
Language : Dutch<br>
Default : No<br>
Forced : No<br>
<br>
Text #15<br>
ID : 17<br>
Format : UTF-8<br>
Codec ID : S_TEXT/UTF8<br>
Codec ID/Info : UTF-8 Plain Text<br>
Duration : 23 min 8 s<br>
Bit rate : 93 b/s<br>
Count of elements : 375<br>
Stream size : 15.8 KiB (0%)<br>
Language : Norwegian<br>
Default : No<br>
Forced : No<br>
<br>
Text #16<br>
ID : 18<br>
Format : UTF-8<br>
Codec ID : S_TEXT/UTF8<br>
Codec ID/Info : UTF-8 Plain Text<br>
Duration : 23 min 8 s<br>
Bit rate : 93 b/s<br>
Count of elements : 380<br>
Stream size : 15.8 KiB (0%)<br>
Language : Polish<br>
Default : No<br>
Forced : No<br>
<br>
Text #17<br>
ID : 19<br>
Format : UTF-8<br>
Codec ID : S_TEXT/UTF8<br>
Codec ID/Info : UTF-8 Plain Text<br>
Duration : 23 min 8 s<br>
Bit rate : 101 b/s<br>
Count of elements : 382<br>
Stream size : 17.2 KiB (0%)<br>
Title : Brazilian<br>
Language : Portuguese<br>
Default : No<br>
Forced : No<br>
<br>
Text #18<br>
ID : 20<br>
Format : UTF-8<br>
Codec ID : S_TEXT/UTF8<br>
Codec ID/Info : UTF-8 Plain Text<br>
Duration : 23 min 8 s<br>
Bit rate : 94 b/s<br>
Count of elements : 349<br>
Stream size : 16.0 KiB (0%)<br>
Title : European<br>
Language : Portuguese<br>
Default : No<br>
Forced : No<br>
<br>
Text #19<br>
ID : 21<br>
Format : UTF-8<br>
Codec ID : S_TEXT/UTF8<br>
Codec ID/Info : UTF-8 Plain Text<br>
Duration : 23 min 8 s<br>
Bit rate : 83 b/s<br>
Count of elements : 352<br>
Stream size : 14.1 KiB (0%)<br>
Language : Romanian<br>
Default : No<br>
Forced : No<br>
<br>
Text #20<br>
ID : 22<br>
Format : UTF-8<br>
Codec ID : S_TEXT/UTF8<br>
Codec ID/Info : UTF-8 Plain Text<br>
Duration : 23 min 8 s<br>
Bit rate : 92 b/s<br>
Count of elements : 374<br>
Stream size : 15.8 KiB (0%)<br>
Language : Slovak<br>
Default : No<br>
Forced : No<br>
<br>
Text #21<br>
ID : 23<br>
Format : UTF-8<br>
Codec ID : S_TEXT/UTF8<br>
Codec ID/Info : UTF-8 Plain Text<br>
Duration : 23 min 8 s<br>
Bit rate : 94 b/s<br>
Count of elements : 366<br>
Stream size : 16.0 KiB (0%)<br>
Language : Swedish<br>
Default : No<br>
Forced : No<br>
<br>
Text #22<br>
ID : 24<br>
Format : UTF-8<br>
Codec ID : S_TEXT/UTF8<br>
Codec ID/Info : UTF-8 Plain Text<br>
Duration : 23 min 8 s<br>
Bit rate : 100 b/s<br>
Count of elements : 363<br>
Stream size : 17.0 KiB (0%)<br>
Language : Turkish<br>
Default : No<br>
Forced : No<br>
<br>
Text #23<br>
ID : 25<br>
Format : UTF-8<br>
Codec ID : S_TEXT/UTF8<br>
Codec ID/Info : UTF-8 Plain Text<br>
Duration : 23 min 8 s<br>
Bit rate : 87 b/s<br>
Count of elements : 388<br>
Stream size : 14.8 KiB (0%)<br>
Title : Traditional, Hong Kong<br>
Language : Chinese<br>
Default : No<br>
Forced : No<br>
<br>
Text #24<br>
ID : 26<br>
Format : UTF-8<br>
Codec ID : S_TEXT/UTF8<br>
Codec ID/Info : UTF-8 Plain Text<br>
Duration : 23 min 8 s<br>
Bit rate : 86 b/s<br>
Count of elements : 380<br>
Stream size : 14.7 KiB (0%)<br>
Title : Simplified<br>
Language : Chinese<br>
Default : No<br>
Forced : No<br>
<br>
Text #25<br>
ID : 27<br>
Format : UTF-8<br>
Codec ID : S_TEXT/UTF8<br>
Codec ID/Info : UTF-8 Plain Text<br>
Duration : 22 min 47 s<br>
Bit rate : 88 b/s<br>
Count of elements : 387<br>
Stream size : 14.7 KiB (0%)<br>
Title : Traditional<br>
Language : Chinese<br>
Default : No<br>
Forced : No<br>
<br>
Menu<br>
00:00:00.000 : en:Scene 1<br>
00:11:49.877 : en:Scene 2<br>
00:18:36.241 : en:Scene 3<br>
00:23:07.296 : en:Credits</div>
</div><br>
Screenshots:<br>
<img src="https://ptpimg.me/86d5qx.jpg" class="bbCodeImage LbImage" alt="[​IMG]" data-url="https://ptpimg.me/86d5qx.jpg" style=""> <br>
<div class="bbCodeBlock bbCodeVfcHH HiddenContent">
<div class="attribution type">Hidden Content:</div>
<blockquote>You must either reply or click 'Like' to see the hidden information contained here.</blockquote>
</div>
<div class="messageTextEndMarker">&nbsp;</div>
</blockquote>
</article>]]></description>
                <author><![CDATA[Cadu]]></author>
                </item>

                </channel></rss>